<svg xmlns="http://www.w3.org/2000/svg" width="1200" height="630" viewBox="0 0 1200 630">
  <defs>
    <linearGradient id="field" x1="0" y1="0" x2="1" y2="1">
      <stop offset="0" stop-color="#001f12"/>
      <stop offset="1" stop-color="#07171d"/>
    </linearGradient>
  </defs>
  <rect width="1200" height="630" fill="url(#field)"/>
  <circle cx="88" cy="78" r="30" fill="none" stroke="#ffffff" stroke-width="3"/>
  <path d="M88 96V59M89 59c18 2 23 9 31 17-12-4-20-2-31 2" fill="none" stroke="#ffffff" stroke-width="3" stroke-linecap="round" stroke-linejoin="round"/>
  <circle cx="78" cy="94" r="3.5" fill="#42bf69"/>
  <text x="134" y="94" fill="#ffffff" font-family="Arial, sans-serif" font-size="42" font-weight="700">TeeLesson</text>
  <text x="64" y="230" fill="#ffffff" font-family="Arial, sans-serif" font-size="58" font-weight="800">Run your coaching.</text>
  <text x="64" y="300" fill="#ffffff" font-family="Arial, sans-serif" font-size="58" font-weight="800">Grow your impact.</text>
  <text x="68" y="358" fill="#cfe5d7" font-family="Arial, sans-serif" font-size="23">Students, lessons, practice, progress, and payments in one place.</text>
  <g transform="translate(64 420)">
    <rect width="1072" height="142" rx="18" fill="#ffffff"/>
    <g transform="translate(28 28)">
      <rect width="300" height="86" rx="12" fill="#f8faf9" stroke="#e2e7e5"/>
      <circle cx="42" cy="43" r="24" fill="#daf6e3"/>
      <text x="78" y="34" fill="#56635f" font-family="Arial, sans-serif" font-size="15">Lessons this week</text>
      <text x="78" y="64" fill="#101917" font-family="Arial, sans-serif" font-size="30" font-weight="700">28</text>
    </g>
    <g transform="translate(386 28)">
      <rect width="300" height="86" rx="12" fill="#f8faf9" stroke="#e2e7e5"/>
      <circle cx="42" cy="43" r="24" fill="#daf6e3"/>
      <text x="78" y="34" fill="#56635f" font-family="Arial, sans-serif" font-size="15">Revenue this month</text>
      <text x="78" y="64" fill="#101917" font-family="Arial, sans-serif" font-size="30" font-weight="700">$7,650</text>
    </g>
    <g transform="translate(744 28)">
      <rect width="300" height="86" rx="12" fill="#f8faf9" stroke="#e2e7e5"/>
      <circle cx="42" cy="43" r="24" fill="#eaf0ff"/>
      <text x="78" y="34" fill="#56635f" font-family="Arial, sans-serif" font-size="15">Active students</text>
      <text x="78" y="64" fill="#101917" font-family="Arial, sans-serif" font-size="30" font-weight="700">42</text>
    </g>
  </g>
</svg>
